<?xml version="1.0" encoding="utf-8"?>
<!-- Generator: Adobe Illustrator 27.5.0, SVG Export Plug-In . SVG Version: 6.00 Build 0)  -->
<svg version="1.1" xmlns="http://www.w3.org/2000/svg" xmlns:xlink="http://www.w3.org/1999/xlink" x="0px" y="0px"
	 viewBox="0 0 500 500" style="enable-background:new 0 0 500 500;" xml:space="preserve">
<g id="Device">
	<g id="Mobil">
		
			<path style="fill:#FFFFFF;stroke:#303030;stroke-width:1.5;stroke-linecap:round;stroke-linejoin:round;stroke-miterlimit:10;" d="
			M358.454,76.606V382.89c0,5.149-4.191,9.35-9.34,9.35H194.276c-5.149,0-9.35-4.201-9.35-9.35V76.606c0-5.149,4.201-9.34,9.35-9.34
			h154.838C354.263,67.266,358.454,71.457,358.454,76.606z"/>
		
			<path style="fill:#FF95FB;stroke:#303030;stroke-width:1.5;stroke-linecap:round;stroke-linejoin:round;stroke-miterlimit:10;" d="
			M184.926,363.456v19.435c0,5.149,4.201,9.35,9.35,9.35h154.838c5.149,0,9.34-4.201,9.34-9.35v-19.435H184.926z"/>
		<g>
			<path style="fill:#FFFFFF;" d="M197.437,372.295h130.836c2.779,0,5.031,2.253,5.031,5.031l0,0c0,2.779-2.253,5.031-5.031,5.031
				H197.437c-2.779,0-5.031-2.253-5.031-5.031l0,0C192.406,374.547,194.658,372.295,197.437,372.295z"/>
			<g>
				
					<polyline style="fill:none;stroke:#FFFFFF;stroke-width:1.5;stroke-linecap:round;stroke-linejoin:round;stroke-miterlimit:10;" points="
					346.221,382.411 351.156,377.326 346.221,372.24 				"/>
				
					<line style="fill:none;stroke:#FFFFFF;stroke-width:1.5;stroke-linecap:round;stroke-linejoin:round;stroke-miterlimit:10;" x1="351.156" y1="377.326" x2="340.134" y2="377.326"/>
			</g>
		</g>
		
			<path style="fill:#FF95FB;stroke:#303030;stroke-width:1.5;stroke-linecap:round;stroke-linejoin:round;stroke-miterlimit:10;" d="
			M349.114,67.266H194.276c-5.149,0-9.35,4.191-9.35,9.34v30.188h173.529V76.606C358.454,71.457,354.263,67.266,349.114,67.266z"/>
		<g>
			<path style="fill:#FFFFFF;" d="M193.105,90.414l2.109,2.109l3.395,3.395c0.583,0.582,1.527,0.582,2.109,0s0.582-1.527,0-2.109
				l-3.395-3.395l3.395-3.395c0.582-0.583,0.582-1.527,0-2.109l0,0c-0.582-0.582-1.526-0.582-2.109,0l-3.395,3.395L193.105,90.414z"
				/>
			
				<ellipse transform="matrix(0.2298 -0.9732 0.9732 0.2298 80.1193 282.063)" style="fill:#FFFFFF;" cx="218.26" cy="90.414" rx="7.434" ry="7.434"/>
			<path style="fill:#FFFFFF;" d="M293.587,93.576h-53.714c-1.747,0-3.163-1.416-3.163-3.162l0,0c0-1.747,1.416-3.163,3.163-3.163
				h53.714c1.747,0,3.163,1.416,3.163,3.163l0,0C296.75,92.16,295.334,93.576,293.587,93.576z"/>
		</g>
		<path style="fill:#303030;" d="M349.114,57.287H194.276c-10.677,0-19.329,8.652-19.329,19.319V382.89
			c0,10.677,8.652,19.328,19.329,19.328h154.838c10.667,0,19.319-8.651,19.319-19.328V76.606
			C368.433,65.939,359.781,57.287,349.114,57.287z M358.454,382.89c0,5.142-4.208,9.35-9.35,9.35H194.276
			c-5.143,0-9.35-4.207-9.35-9.35V76.606c0-5.158,4.182-9.34,9.34-9.34h37.283c3.435,0,6.429,2.337,7.264,5.669l0,0
			c0.834,3.332,3.829,5.669,7.264,5.669h51.235c3.435,0,6.429-2.337,7.264-5.669l0,0c0.835-3.332,3.829-5.669,7.264-5.669h37.275
			c5.158,0,9.34,4.182,9.34,9.34V382.89z"/>
	</g>
</g>
<g id="Chat_00000098935263204679158410000014552892084534857632_">
	<g id="Chat_00000117646363355621614630000003738929455653969599_">
		<g>
			
				<path style="fill:#FFFFFF;stroke:#303030;stroke-width:1.5;stroke-linecap:round;stroke-linejoin:round;stroke-miterlimit:10;" d="
				M352.104,190.199l-7.787-3.893v-7.254c0-4.971-4.029-9-9-9H232.622c-4.971,0-9,4.029-9,9v26.583c0,4.971,4.029,9,9,9h102.695
				c4.971,0,9-4.029,9-9v-7.254l7.787-3.893C353.871,193.604,353.871,191.083,352.104,190.199z"/>
			<g>
				<path style="fill:#F55571;" d="M330.205,187.392h-92.112c-1.848,0-3.346-1.498-3.346-3.346l0,0c0-1.848,1.498-3.346,3.346-3.346
					h92.112c1.848,0,3.346,1.498,3.346,3.346l0,0C333.551,185.894,332.053,187.392,330.205,187.392z"/>
				<path style="fill:#F55571;" d="M330.205,202.875h-92.112c-1.848,0-3.346-1.498-3.346-3.346l0,0c0-1.848,1.498-3.346,3.346-3.346
					h92.112c1.848,0,3.346,1.498,3.346,3.346l0,0C333.551,201.377,332.053,202.875,330.205,202.875z"/>
			</g>
		</g>
		<g>
			
				<path style="fill:#FFFFFF;stroke:#303030;stroke-width:1.5;stroke-linecap:round;stroke-linejoin:round;stroke-miterlimit:10;" d="
				M191.956,136.074l7.787-3.893v-7.254c0-4.971,4.029-9,9-9h102.695c4.97,0,9,4.029,9,9v26.583c0,4.971-4.029,9-9,9H208.743
				c-4.971,0-9-4.03-9-9v-7.254l-7.787-3.893C190.189,139.479,190.189,136.958,191.956,136.074z"/>
			<g>
				<path style="fill:#00826F;" d="M306.146,133.667h-92.112c-1.848,0-3.346-1.498-3.346-3.346l0,0c0-1.848,1.498-3.346,3.346-3.346
					h92.112c1.848,0,3.346,1.498,3.346,3.346l0,0C309.492,132.169,307.994,133.667,306.146,133.667z"/>
				<path style="fill:#00826F;" d="M306.146,149.151h-92.112c-1.848,0-3.346-1.498-3.346-3.346l0,0c0-1.848,1.498-3.346,3.346-3.346
					h92.112c1.848,0,3.346,1.498,3.346,3.346l0,0C309.492,147.653,307.994,149.151,306.146,149.151z"/>
			</g>
		</g>
		<g>
			
				<path style="fill:#FFFFFF;stroke:#303030;stroke-width:1.5;stroke-linecap:round;stroke-linejoin:round;stroke-miterlimit:10;" d="
				M150.915,245.17l7.787-3.893v-7.254c0-4.971,4.029-9,9-9H272.86c4.971,0,9,4.029,9,9v26.583c0,4.971-4.029,9-9,9H167.702
				c-4.971,0-9-4.03-9-9v-7.254l-7.787-3.893C149.148,248.575,149.148,246.053,150.915,245.17z"/>
			<g>
				<path style="fill:#00826F;" d="M266.759,242.918h-92.112c-1.848,0-3.346-1.498-3.346-3.346l0,0c0-1.848,1.498-3.346,3.346-3.346
					h92.112c1.848,0,3.346,1.498,3.346,3.346l0,0C270.105,241.42,268.607,242.918,266.759,242.918z"/>
				<path style="fill:#00826F;" d="M266.759,258.401h-92.112c-1.848,0-3.346-1.498-3.346-3.346l0,0c0-1.848,1.498-3.346,3.346-3.346
					h92.112c1.848,0,3.346,1.498,3.346,3.346l0,0C270.105,256.903,268.607,258.401,266.759,258.401z"/>
			</g>
		</g>
		<g>
			
				<path style="fill:#FFFFFF;stroke:#303030;stroke-width:1.5;stroke-linecap:round;stroke-linejoin:round;stroke-miterlimit:10;" d="
				M330.721,313.439l-7.787-3.893v-7.254c0-4.971-4.029-9-9-9h-55.756c-4.97,0-9,4.029-9,9v26.583c0,4.97,4.029,9,9,9h55.755
				c4.971,0,9-4.03,9-9v-7.254l7.787-3.893C332.488,316.844,332.488,314.323,330.721,313.439z"/>
			<g>
				<path style="fill:#00826F;" d="M272.526,314.927c0,2.95-2.391,5.341-5.341,5.341c-2.95,0-5.341-2.391-5.341-5.341
					c0-2.95,2.391-5.341,5.341-5.341C270.134,309.586,272.526,311.977,272.526,314.927z"/>
				<path style="fill:#00826F;" d="M292.067,314.927c0,2.95-2.391,5.341-5.341,5.341c-2.95,0-5.341-2.391-5.341-5.341
					c0-2.95,2.391-5.341,5.341-5.341C289.675,309.586,292.067,311.977,292.067,314.927z"/>
				<path style="fill:#00826F;" d="M311.608,314.927c0,2.95-2.391,5.341-5.341,5.341c-2.95,0-5.341-2.391-5.341-5.341
					c0-2.95,2.392-5.341,5.341-5.341C309.216,309.586,311.608,311.977,311.608,314.927z"/>
			</g>
		</g>
	</g>
</g>
<g id="Speech_Bubble">
	<g id="Speech_Bubble_00000110428939941967658360000004645228933632646819_">
		
			<path id="Speech_Bubble_00000127037742902730466770000005185949979208854185_" style="fill:#FFFFFF;stroke:#303030;stroke-width:1.5;stroke-linecap:round;stroke-linejoin:round;stroke-miterlimit:10;" d="
			M63.825,200.593c15.745-10.858,33.366-7.083,43.784-0.174c11.342,7.522,23.071,27.521,5.54,45.994
			c0.742,3.895,4.464,6.528,7.593,7.267c1.591,0.376,0.047,2.186-5.271,2.403c-4.838,0.197-8.458-0.812-12.592-3.426
			c-11.271,6.095-35.287,5.729-47.147-11.008C48.46,231.386,47.314,211.979,63.825,200.593z"/>
		<g id="Face">
			<circle style="fill:#00826F;" cx="86.379" cy="224.171" r="18.598"/>
			<path style="fill:none;stroke:#FFFFFF;stroke-width:1.5;stroke-linecap:round;stroke-linejoin:round;stroke-miterlimit:10;" d="
				M95.576,225.048c-1.281,3.648-5.269,5.935-9.197,5.935c-3.928,0-7.916-2.287-9.197-5.935"/>
			<g>
				<path style="fill:#FFFFFF;" d="M92.684,221.205c0,0.862-0.699,1.56-1.56,1.56c-0.862,0-1.56-0.699-1.56-1.56
					c0-0.862,0.699-1.56,1.56-1.56C91.985,219.644,92.684,220.343,92.684,221.205z"/>
				<path style="fill:#FFFFFF;" d="M83.195,221.205c0,0.862-0.699,1.56-1.56,1.56c-0.862,0-1.56-0.699-1.56-1.56
					c0-0.862,0.699-1.56,1.56-1.56C82.497,219.644,83.195,220.343,83.195,221.205z"/>
			</g>
		</g>
	</g>
</g>
<g id="Character_2">
	<g id="Character_00000016785226661535889870000013163564062692883628_">
		<g id="Head_00000155125152298011447850000008258286303193599141_">
			<path style="fill:#00826F;" d="M329.752,61.088c-0.972,10.112,6.663,21.984,17.25,23.001c10.587,1.017,20.119-9.205,21.09-19.317
				c0.971-10.112-6.824-19.134-17.411-20.151C340.094,43.604,330.723,50.976,329.752,61.088z"/>
			<path style="opacity:0.5;fill:#303030;" d="M329.752,61.088c-0.972,10.112,6.663,21.984,17.25,23.001
				c10.587,1.017,20.119-9.205,21.09-19.317c0.971-10.112-6.824-19.134-17.411-20.151C340.094,43.604,330.723,50.976,329.752,61.088
				z"/>
			<path style="fill:#FFC4B0;" d="M335.984,79.518c-0.125,2.202,0.519,4.304,1.93,5.971l-1.269,12.22l-6.513,2.656
				c1.66,1.832,7.131,5.942,17.443,5.974c12.285,0.039,13.132-5.621,13.132-5.621l-4.905-1.82l0.027-6.364
				c1.249,0.086,6.097,0.261,8.512-1.821c2.415-2.082,2.322-5.113,2.428-9.897c0.057-2.58,0.239-6.388,0.565-8.719
				c0.397-2.83,0.731-4.502,0.846-8.15c0.169-5.354-2.449-9.844-2.449-9.844c-2.779-4.817-11.776-8.098-17.545-5.875
				c-5.768,2.223-9.399,6.245-10.43,9.522c1.232,2.914,2.535,6.021,2.063,10.038c-0.284,2.775-0.905,2.828-1.875,1.451
				c-1.303-1.787-3.351-3.382-5.62-3.569c-2.957-0.242-5.072,1.32-5.634,3.43c-0.666,2.5,0.883,4.483,2.87,5.498
				c1.987,1.015,4.705,1.231,6.694,0.155C336.254,74.752,336.109,77.316,335.984,79.518z"/>
			<g>
				<path style="fill:#303030;" d="M355.829,92.533c-4.735-0.381-10.027-1.686-13.114-3.753c0.764,2.063,4.216,5.451,13.1,7.112
					L355.829,92.533z"/>
				<g>
					<g>
						<path style="fill:#FFFFFF;" d="M358.824,68.242c0.497-1.157,1.724-1.644,3.029-1.623c1.306,0.021,3.134,0.509,3.3,2.354
							C364.498,70.751,360.335,70.903,358.824,68.242z"/>
						<path style="fill:#303030;" d="M363.3,69.774c-0.465,0.752-1.482,0.971-2.272,0.49c-0.79-0.481-1.053-1.48-0.588-2.232
							c0.465-0.752,1.482-0.971,2.272-0.49S363.765,69.023,363.3,69.774z"/>
						<polygon style="fill:#FFFFFF;" points="360.329,67.975 361.87,68.903 360.016,68.842 						"/>
						
							<path style="fill:none;stroke:#303030;stroke-width:1.5;stroke-linecap:round;stroke-linejoin:round;stroke-miterlimit:10;" d="
							M365.396,68.655c-0.679-1.403-2.131-1.865-3.437-1.886c-1.306-0.021-2.708,0.666-3.134,1.473"/>
					</g>
					
						<path style="fill:none;stroke:#303030;stroke-width:1.5;stroke-linecap:round;stroke-linejoin:round;stroke-miterlimit:10;" d="
						M361.3,60.239c2.239-0.11,5.12,0.653,7.093,2.402"/>
				</g>
				<g>
					<g>
						<path style="fill:#FFFFFF;" d="M345.62,67.703c0.378-1.201,1.549-1.81,2.85-1.921c1.301-0.111,3.169,0.19,3.521,2.009
							C351.517,69.626,347.392,70.198,345.62,67.703z"/>
						<path style="fill:#303030;" d="M350.227,68.775c-0.387,0.795-1.376,1.116-2.211,0.716c-0.834-0.399-1.197-1.367-0.811-2.161
							c0.387-0.795,1.376-1.115,2.211-0.716C350.251,67.013,350.614,67.981,350.227,68.775z"/>
						<polygon style="fill:#FFFFFF;" points="347.09,67.286 348.717,68.053 346.866,68.18 						"/>
						
							<path style="fill:none;stroke:#303030;stroke-width:1.5;stroke-linecap:round;stroke-linejoin:round;stroke-miterlimit:10;" d="
							M352.199,67.45c-0.817-1.327-2.309-1.64-3.61-1.529c-1.301,0.111-2.626,0.936-2.969,1.782"/>
					</g>
					
						<path style="fill:none;stroke:#303030;stroke-width:1.5;stroke-linecap:round;stroke-linejoin:round;stroke-miterlimit:10;" d="
						M343.762,60.691c1.833-1.54,5.213-2.098,7.626-1.189"/>
				</g>
				<path style="fill:none;stroke:#303030;stroke-width:1.5;stroke-linecap:round;stroke-linejoin:round;stroke-miterlimit:10;" d="
					M355.31,64.084c0.346,3.754,1.664,6.183,2.419,8.107c0.579,1.475,0.479,3.954-3.104,3.859"/>
				<path style="fill:none;stroke:#303030;stroke-width:1.5;stroke-linecap:round;stroke-linejoin:round;stroke-miterlimit:10;" d="
					M349.655,78.91c1.541,1.672,4.093,2.262,6.315,2.05"/>
				<g>
					
						<path style="fill:none;stroke:#303030;stroke-width:1.5;stroke-linecap:round;stroke-linejoin:round;stroke-miterlimit:10;" d="
						M329.842,69.244c0.552-0.352,1.881-0.582,3.193-0.168c1.312,0.414,2.368,1.502,2.7,2.782"/>
					
						<path style="fill:none;stroke:#303030;stroke-width:1.5;stroke-linecap:round;stroke-linejoin:round;stroke-miterlimit:10;" d="
						M332.046,70.784c0.407-0.256,1.825-0.892,3.147-0.101"/>
				</g>
			</g>
			<path style="fill:#00826F;" d="M355.016,49.284c3.472,2.016,6.222,6.042,7.61,9.34c0.296,0.703,1.313,0.572,1.429-0.182
				c0.274-1.77,0.302-3.974-0.368-6.096c3.865,3.606,4.494,9.577,4.494,11.599c1.843-0.783,3.063-5.233,2.736-7.801
				c-1.3-10.22-12.424-17.696-22.991-11.85c-5.826-1.926-12.542,1.029-16.195,6.246c-3.653,5.218-7.062,13.205-1.609,15.314
				c0,0,6.706-1.025,11.23-5.086c4.524-4.062,7.364-10.404,7.364-10.404s0.428,2.766-0.891,7.868
				c-0.24,0.929,0.871,1.599,1.57,0.942C351.883,56.838,354.099,53.44,355.016,49.284z"/>
		</g>
		<g id="Arn">
			
				<path style="fill:#FFFFFF;stroke:#303030;stroke-width:1.5;stroke-linecap:round;stroke-linejoin:round;stroke-miterlimit:10;" d="
				M377.662,106.339c10.03,4.425,11.04,6.518,16.031,12.799c4.991,6.281,12.639,17.774,12.639,17.774s-7.712,17.387-20.598,19.592
				l-8.072-10.934V106.339"/>
			<g id="Arm_00000121244248679857545480000011490573074458162566_">
				<path style="fill:#FFC4B0;" d="M444.241,121.022c0.528-1.12,0.504-2.428-0.013-3.401c-0.517-0.974-0.926-1.579-1.798-1.648
					c0.466-1.093,0.355-1.813-0.197-2.674c-0.68-1.061-1.997-1.283-3.335-1.08c1.592-1.597,3.361-3.019,5.263-4.231
					c0.898-0.572,2.398-1.763,1.857-3.031c-0.357-0.837-0.971-1.435-3.032-0.994c-1.948,0.417-3.698,1.515-5.36,2.57
					c-1.696,1.076-3.198,2.324-4.716,3.638c-1.52,1.315-2.45,2.298-3.732,3.254c-1.237,0.923-1.683,0.18-1.552-1.155
					c0.167-1.701,1.11-3.6,0.78-5.277c-0.06-0.304-0.217-1.083-0.551-1.331c-0.621-0.46-1.119-0.497-1.604-0.346
					c-1.463,0.457-2.138,2.928-2.675,4.005c-0.709,1.423-1.488,2.814-1.997,4.326c-0.655,1.946-1.14,4.566-1.367,6.61
					c-0.278,2.508-0.802,3.687-2.162,5.132c-0.091,0.097-0.174,0.192-0.271,0.29c-0.219,0.221-0.457,0.45-0.718,0.693
					c-2.37,2.209-6.519,5.048-11.495,9.395l-6.024,5.055c-2.085,1.757-4.354,3.74-6.789,6.017c-4.421,4.135-6.592,8.695-7.018,9.664
					c4.464,5.08,11.114,11.938,18.01,9.117c4.274-1.748,8.65-6.53,11.405-10.226c5.808-7.791,11.408-16.973,13.734-19.956
					c0.165-0.212,0.33-0.383,0.495-0.56c1.842-1.873,3.846-1.405,7.038-3.543c1.2-0.803,2.285-1.985,3.354-3.148
					c0.223,0.328,0.506,0.51,0.799,0.59c0.469,0.484,1.103,0.514,1.562,0.401c0.661-0.162,1.192-0.65,1.627-1.173
					c0.819-0.986,1.402-2.166,1.689-3.415c0.188-0.818,0.246-1.695-0.046-2.483C445.111,121.323,444.576,121.071,444.241,121.022z"
					/>
				<path style="fill:none;stroke:#303030;stroke-width:1.5;stroke-linecap:round;stroke-linejoin:round;stroke-miterlimit:10;" d="
					M385.734,156.504c0.045-0.05,2.597-5.529,7.018-9.664c2.033-1.901,3.95-3.597,5.741-5.128"/>
				<path style="fill:none;stroke:#303030;stroke-width:1.5;stroke-linecap:round;stroke-linejoin:round;stroke-miterlimit:10;" d="
					M442.649,115.417c-0.755,2.03-1.949,3.895-3.475,5.431c-0.707,0.712-1.51,1.368-2.465,1.676
					c-0.819,0.264-1.989,0.333-2.626-0.283c-0.837-0.809-0.624-2.055,0.031-2.902c0.345-0.446,0.64-0.925,1.03-1.332
					c0.671-0.7,2.479-2.809,2.948-3.658"/>
				<path style="fill:none;stroke:#303030;stroke-width:1.5;stroke-linecap:round;stroke-linejoin:round;stroke-miterlimit:10;" d="
					M444.241,121.022c-0.734,1.348-1.708,2.475-2.853,3.627c-0.707,0.712-1.51,1.368-2.465,1.677
					c-0.819,0.264-1.989,0.332-2.626-0.283c-0.837-0.809-0.595-1.681,0.061-2.528c0.345-0.446,0.459-0.725,0.849-1.132"/>
				<path style="fill:none;stroke:#303030;stroke-width:1.5;stroke-linecap:round;stroke-linejoin:round;stroke-miterlimit:10;" d="
					M430.445,117.706c0.499,0.624,0.655,1.454,0.696,2.252c0.15,2.895-1.067,5.832-3.221,7.772"/>
			</g>
			<path style="fill:none;stroke:#303030;stroke-width:1.5;stroke-linecap:round;stroke-linejoin:round;stroke-miterlimit:10;" d="
				M405.19,135.139c-6.46,5-8.482,7.877-9.887,16.515"/>
		</g>
		<g id="Chest_00000044867627217772139910000002516106567469693881_">
			
				<path style="fill:#FFFFFF;stroke:#303030;stroke-width:1.5;stroke-linecap:round;stroke-linejoin:round;stroke-miterlimit:10;" d="
				M378.977,106.929l-18.269-7.149c0,0,0.172,4.407-10.122,5.013c-10.585,0.623-16.037-3.768-18.539-5.452l-16.497,5.078
				c0,0-7.342,6.87-5.115,38.461c1.683,23.865,2.894,34.915,4.435,41.49c1.394,5.95,8.418,16.017,52.913,9.168
				c20.034-3.171,25.194-10.901,24.214-17.825c-1.08-7.634-6.703-13.184-8.481-28.031c-0.816-6.81-0.628-15.707-1.304-23.912"/>
		</g>
		<g id="Arm_00000049196886758037874270000018281923890298214551_">
			<g>
				<path style="fill:#FFC4B0;" d="M308.733,141.751v-28.43c-1.151,0.843-2.36,1.798-3.58,2.882
					c-5.604,4.98-7.832,9.597-14.345,21.675c-8.202,15.209-10.327,24.852-7.979,29.104l19.302-2.154l15.23-23.077H308.733z"/>
				
					<path style="fill:#FFFFFF;stroke:#303030;stroke-width:1.5;stroke-linecap:round;stroke-linejoin:round;stroke-miterlimit:10;" d="
					M320.348,113.452"/>
				
					<path style="fill:#FFFFFF;stroke:#303030;stroke-width:1.5;stroke-linecap:round;stroke-linejoin:round;stroke-miterlimit:10;" d="
					M321.549,134.807c-0.824,5.035-2.532,9.901-5.043,14.37l-5.363,9.546c0,0-22.345-7.311-26.011-16.532
					c19.5-30.283,16.988-33.041,30.417-37.772"/>
			</g>
			<g id="Mobile_00000109027937279005608420000017163574150911753912_">
				<path style="fill:#F55571;" d="M347.669,164.81l15.466,0.001c1.588,0,3.075-1.357,3.322-3.03l4.631-31.406
					c0.247-1.673-0.84-3.03-2.428-3.03l-15.466-0.001c-1.588,0-3.075,1.357-3.322,3.03l-4.631,31.406
					C344.994,163.453,346.081,164.81,347.669,164.81z"/>
				<path style="fill:#303030;" d="M350.883,164.81l15.466,0.001c1.588,0,3.075-1.356,3.322-3.03l4.631-31.406
					c0.247-1.673-0.84-3.03-2.428-3.03l-15.466-0.001c-1.588,0-3.075,1.357-3.322,3.03l-4.631,31.406
					C348.208,163.453,349.295,164.81,350.883,164.81z"/>
				<path style="fill:#FFFFFF;" d="M356.181,132.04c-0.082,0.632,0.364,1.145,0.996,1.145c0.632,0,1.211-0.512,1.293-1.144
					c0.082-0.632-0.364-1.145-0.996-1.145C356.842,130.896,356.263,131.408,356.181,132.04z"/>
				<path style="fill:#FFFFFF;" d="M355.615,135.768c-0.082,0.632,0.364,1.144,0.996,1.145c0.632,0,1.211-0.512,1.293-1.144
					c0.082-0.632-0.364-1.145-0.996-1.145C356.276,134.624,355.697,135.136,355.615,135.768z"/>
			</g>
			<g id="Arm_00000162319335570265730230000012267779983098353546_">
				<path style="fill:#FFC4B0;" d="M281.932,162.608c0-3.959,8.072-10.777,14.004-12.482c10.183-2.927,34.133-0.054,39.351-0.193
					c3.215-0.086,4.384-0.926,5.167-1.832c2.915-3.372,4.378-4.589,7.554-5.086l-0.723,4.901c3.149,1.477,7.222,1.99,12.332,0.582
					c1.902-0.524,3.641-1.43,5.411-2.283c0.524-0.253,1.054-0.507,1.622-0.633c0.568-0.126,1.186-0.113,1.703,0.153
					c0.257,0.132,0.492,0.339,0.577,0.615c0.123,0.401-0.096,0.822-0.338,1.164c-0.89,1.257-2.17,2.179-3.455,3.028
					c-1.475,0.975-2.991,1.888-4.543,2.737c1.593-0.048,3.154-0.447,4.676-0.919c0.544-0.169,1.086-0.348,1.636-0.496
					c0.502-0.135,1.024-0.246,1.538-0.168c0.985,0.149,1.499,0.992,1.389,1.987c-0.069,0.624-0.432,0.949-0.815,1.413
					c0.987,1.872-0.428,3.727-0.899,4.092c-2.385,1.853-6.235,3.262-9.159,4.021c0.698,0.185,2.438,0.268,3.987,0.079
					c1.096-0.133,2.482-0.275,3.408,0.131c1.286,0.564,0.819,1.885-0.247,2.382c-1.045,0.487-2.821,0.917-3.96,1.097
					c-7.061,1.113-11.753-0.256-20.533-0.531c-8.78-0.275-34.249,10.847-51.611,6.082
					C283.398,170.637,281.932,167.624,281.932,162.608z"/>
				<path style="fill:none;stroke:#303030;stroke-width:1.5;stroke-linecap:round;stroke-linejoin:round;stroke-miterlimit:10;" d="
					M286.444,157.141c2.23-3.23,5.674-5.775,9.665-7.013c3.991-1.238,7.292-1.271,11.237-1.293c4.602-0.026,9.286,0.116,9.286,0.116
					"/>
				<path style="fill:none;stroke:#303030;stroke-width:1.5;stroke-linecap:round;stroke-linejoin:round;stroke-miterlimit:10;" d="
					M368.914,155.396c-4.43,2.17-7.792,2.997-13.472,3.109"/>
				<path style="fill:none;stroke:#303030;stroke-width:1.5;stroke-linecap:round;stroke-linejoin:round;stroke-miterlimit:10;" d="
					M356.297,154.19c2.535-0.269,5.71-1.074,7.995-2.205"/>
				<path style="fill:none;stroke:#303030;stroke-width:1.5;stroke-linecap:round;stroke-linejoin:round;stroke-miterlimit:10;" d="
					M355.998,163.084c1.984,0.119,4.896-0.031,7.109-0.476"/>
			</g>
		</g>
		<g id="Legs_00000067238449293028156780000007624535504510052270_">
			<g id="Leg_00000164499800422234546830000013849971158784497075_">
				<path style="fill:#FFC4B0;" d="M389.784,184.89c25.405,21.19,32.518,26.366,50.056,46.013
					c12.647,14.168,8.29,23.958-2.603,35.695c-19.419,20.926-46.042,49.943-46.042,49.943c-9.956,11.98-31.958-10.853-13.522-19.568
					c7.535-10.217,14.721-36.045,31.94-46.745l-55.261-30.489l-30.439-34.849H389.784z"/>
				<g>
					<path style="fill:#00826F;" d="M380.33,345.044c2.628,3.831,6.805,8.613,11.208,12.025c4.404,3.412,6.879,2.752,7.674,1.931
						c0.795-0.82,1.981-3.765-0.808-10.863c-1.697-4.319-2.422-6.982-2.897-11.439c-0.551-5.162-0.102-15.404,0.048-17.774
						c0.195-3.087-3.551-7.666-8.582-7.526L380.33,345.044z"/>
					<g>
						<path style="fill:#00826F;" d="M380.33,345.044c2.015-1.918,5.338-5.487,7.261-7.496c0.463-0.484,0.938-0.995,1.132-1.635
							c0.111-0.366,0.123-0.754,0.133-1.137c0.189-7.619-0.401-15.257-1.758-22.757c-0.227-1.252-0.52-2.587-1.447-3.459
							c-0.737-0.694-1.758-0.979-2.735-1.242c-1.816-0.488-2.907-0.781-4.723-1.268c-2.067-0.555-3.623-1.925-3.133-4.008
							c0.522-2.219,2.615-5.068,2.615-5.068l1.075-1.566c-0.598-0.741-2.35-1.199-3.625-0.892c-2.797,0.672-3.846,3.205-8.77,5.495
							c-3.427,1.594-6.928,4.89-6.928,4.89c-0.308,3.394,1.808,8.023,5.343,12.756c3.535,4.732,7.482,9.837,9.408,15.035
							C376.841,339.882,380.33,345.044,380.33,345.044z"/>
					</g>
					
						<path style="fill:none;stroke:#303030;stroke-width:1.5;stroke-linecap:round;stroke-linejoin:round;stroke-miterlimit:10;" d="
						M386.218,334.65c3.634,0.102,9.37,2.762,10.719,6.97"/>
					
						<path style="fill:none;stroke:#303030;stroke-width:1.5;stroke-linecap:round;stroke-linejoin:round;stroke-miterlimit:10;" d="
						M395.332,334.262c-2.058-0.965-3.841-1.045-6.451-0.81"/>
					
						<path style="fill:none;stroke:#303030;stroke-width:1.5;stroke-linecap:round;stroke-linejoin:round;stroke-miterlimit:10;" d="
						M395.508,336.699c-1.427-2.135-4.169-4.626-8.623-8.958"/>
					
						<path style="fill:none;stroke:#303030;stroke-width:1.5;stroke-linecap:round;stroke-linejoin:round;stroke-miterlimit:10;" d="
						M395.067,328.183c-2.058-0.965-3.507-1.073-6.117-0.838"/>
					
						<path style="fill:none;stroke:#303030;stroke-width:1.5;stroke-linecap:round;stroke-linejoin:round;stroke-miterlimit:10;" d="
						M395.243,330.62c-1.427-2.135-4.169-4.626-8.623-8.958"/>
					
						<path style="fill:none;stroke:#303030;stroke-width:1.5;stroke-linecap:round;stroke-linejoin:round;stroke-miterlimit:10;" d="
						M395.302,321.872c-2.058-0.965-4.341-0.812-6.951-0.577"/>
					
						<path style="fill:none;stroke:#303030;stroke-width:1.5;stroke-linecap:round;stroke-linejoin:round;stroke-miterlimit:10;" d="
						M394.979,324.542c-1.427-2.135-4.169-4.627-8.623-8.958"/>
					
						<path style="fill:none;stroke:#303030;stroke-width:1.5;stroke-linecap:round;stroke-linejoin:round;stroke-miterlimit:10;" d="
						M369.469,298.331c-1.215,1.696-2.023,3.585-1.699,5.646c0.324,2.061,1.486,3.977,3.163,5.218
						c2.642,1.955,6.364,2.223,8.665,4.57c1.674,1.706,2.255,4.18,2.677,6.533c0.779,4.348,1.536,11.51,1.018,12.884
						c-0.518,1.374-3.231,4.174-5.847,6.872"/>
					
						<path style="fill:#FFFFFF;stroke:#303030;stroke-width:1.5;stroke-linecap:round;stroke-linejoin:round;stroke-miterlimit:10;" d="
						M392.509,364.208c-5.946-2.229-12.104-8.632-16.697-14.423c-4.599-5.797-5.503-12.717-7.508-16.398
						c-2.75-5.054-6.318-8.416-8.91-12.388c-2.598-3.966-5.507-8.668-4.979-10.93c0.522-2.256,2.201-3.44,5.01-5.168
						c-0.309,3.392,1.81,8.027,5.344,12.756c3.535,4.729,7.486,9.838,9.41,15.033c2.666,7.193,6.147,12.352,6.147,12.352
						c2.633,3.831,6.811,8.617,11.214,12.028c4.402,3.411,6.873,2.754,7.669,1.932C398.763,360.465,395.442,365.302,392.509,364.208
						z"/>
				</g>
			</g>
			<g id="Leg_00000065061063135393381820000002544056512118856836_">
				<path style="fill:#FFC4B0;" d="M389.784,184.89c-1.433,7.923-5.776,27.884-19.031,34.173
					c1.127,26.389,0.864,48.145,0.898,57.859c0.078,22.626-1.899,34.722-2.318,61.442c-0.316,20.145-1.12,28.482-1.12,41.425
					c-13.942,22.128-21.72,1.599-21.72,1.599s-2.494-24.678-4.671-35.25c-4.891-23.75-2.406-47.831-5.277-62.405
					c-3.608-18.319-7.111-36.122-10.126-51.455c-5.453-27.735-2.505-47.388-2.505-47.388H389.784z"/>
				<g>
					<g>
						<path style="fill:#00826F;" d="M375.26,392.847c1.176,3.812,3.424,8.01,3.956,11.964c0.531,3.953,0.593,7.702-2.512,10.206
							c-1.648,1.328-3.74,1.969-5.814,2.392c-6.096,1.241-12.628,1.207-18.5-0.847c-2.054-0.718-3.994-2.076-5.461-3.682
							c-2.457-2.691-2.375-6.553-2.52-10.194c-0.131-3.293,0.299-7.472,0.344-10.767c0.091-6.772-0.428-6.489,0.728-19.839
							c0.063,0.65,0.481,4.738,2.435,5.711c1.085,0.541,1.549-3.29,3.505-5.433c1.674-1.835,4.637-3.381,7.106-3.668
							c4.313-0.5,7.588-0.118,10.616,2.239c2.811,2.188,2.668,5.225,3.014,8.413C372.833,385.561,373.5,387.156,375.26,392.847z"/>
					</g>
					<g>
						
							<path style="fill:none;stroke:#303030;stroke-width:1.5;stroke-linecap:round;stroke-linejoin:round;stroke-miterlimit:10;" d="
							M371.582,397.279c-6.232-1.809-13.019-1.657-19.164,0.43"/>
						
							<path style="fill:none;stroke:#303030;stroke-width:1.5;stroke-linecap:round;stroke-linejoin:round;stroke-miterlimit:10;" d="
							M371.582,394.496c-4.316-2.225-10.55-3.894-19.422-3.967"/>
						
							<path style="fill:none;stroke:#303030;stroke-width:1.5;stroke-linecap:round;stroke-linejoin:round;stroke-miterlimit:10;" d="
							M370.605,389.863c-3.618,0.665-11.874,1.571-18.187,4.632"/>
						
							<path style="fill:none;stroke:#303030;stroke-width:1.5;stroke-linecap:round;stroke-linejoin:round;stroke-miterlimit:10;" d="
							M370.255,387.594c-3.999-2.243-9.767-3.939-17.966-4.051"/>
						
							<path style="fill:none;stroke:#303030;stroke-width:1.5;stroke-linecap:round;stroke-linejoin:round;stroke-miterlimit:10;" d="
							M369.332,382.959c-3.341,0.65-10.967,1.519-16.787,4.552"/>
						
							<path style="fill:none;stroke:#303030;stroke-width:1.5;stroke-linecap:round;stroke-linejoin:round;stroke-miterlimit:10;" d="
							M369.092,380.775c-3.745-2.258-9.141-3.975-16.803-4.117"/>
						
							<path style="fill:none;stroke:#303030;stroke-width:1.5;stroke-linecap:round;stroke-linejoin:round;stroke-miterlimit:10;" d="
							M368.212,376.138c-3.119,0.637-10.242,1.477-15.669,4.487"/>
						
							<path style="fill:none;stroke:#303030;stroke-width:1.5;stroke-linecap:round;stroke-linejoin:round;stroke-miterlimit:10;" d="
							M345.679,379.926c0,0,0.8,1.456,1.401,2.501c1.225,2.132,0.951,4.638,0.893,7.096c-0.057,2.458-0.289,4.955,0.275,7.348
							c0.323,1.371,0.903,2.683,1.07,4.082c0.203,1.702-0.218,3.409-0.635,5.071c-0.693,2.758-0.91,3.954-1.603,6.713"/>
						
							<path style="fill:none;stroke:#303030;stroke-width:1.5;stroke-linecap:round;stroke-linejoin:round;stroke-miterlimit:10;" d="
							M373.958,389.343c0.068,2.079,0.136,4.159,0.204,6.238c0.035,1.085,0.071,2.175,0.265,3.244
							c0.273,1.508,0.854,2.941,1.399,4.373c1.262,3.316,2.368,6.826,1.986,10.354"/>
					</g>
					
						<path style="fill:#FFFFFF;stroke:#303030;stroke-width:1.5;stroke-linecap:round;stroke-linejoin:round;stroke-miterlimit:10;" d="
						M344.29,414.656c0.161,2.001,2.248,7.354,13.222,8.95c8.718,1.268,16.01-0.477,19.743-3.574
						c2.572-2.148,2.815-7.412,2.245-13.031l-0.065-0.022c0.229,3.136-0.205,5.994-2.733,8.034
						c-1.642,1.327-3.735,1.976-5.817,2.397c-6.091,1.242-12.62,1.207-18.493-0.846c-2.052-0.722-4.001-2.074-5.459-3.683
						c-2.462-2.694-2.381-6.557-2.519-10.192c-0.019-0.403-0.027-0.816-0.024-1.241C344.065,407.409,343.942,410.333,344.29,414.656
						z"/>
				</g>
			</g>
			<g>
				<path style="fill:#F55571;" d="M321.665,185.585c16.076-8.607,57.59-11.68,64.996-7.036c0,0,34.513,30.002,42.855,38.726
					c8.342,8.725,25.462,22.375,18.04,36.532c-7.423,14.156-34.687,40.198-34.687,40.198s-5.922-0.925-12.712-6.532
					c-6.79-5.606-10.921-13.783-10.921-13.783s10.704-20.895,16.771-23.17l-31.863-15.926c0,0,0.379,39.436-0.184,56.12
					c-0.563,16.684-3.353,58.77-3.353,58.77s-3.04,1.912-14.155,2.159c-11.115,0.247-16.171-3.545-16.171-3.545
					s-2.528-15.343-3.034-29.285c-0.506-13.942-1.52-29.381-3.792-41.497C329.662,257.093,318.884,219.302,321.665,185.585z"/>
				<path style="fill:none;stroke:#303030;stroke-width:1.5;stroke-linecap:round;stroke-linejoin:round;stroke-miterlimit:10;" d="
					M321.665,185.585c16.076-8.607,57.59-11.68,64.996-7.036"/>
				<path style="fill:none;stroke:#FFFFFF;stroke-width:1.5;stroke-linecap:round;stroke-linejoin:round;stroke-miterlimit:10;" d="
					M375.29,195.837c3.549,13.776-1.071,20.949-1.052,29.977c0.004,1.626,0.051,2.87,0.132,4.25"/>
				<path style="fill:none;stroke:#FFFFFF;stroke-width:1.5;stroke-linecap:round;stroke-linejoin:round;stroke-miterlimit:10;" d="
					M325.89,186.419c0.981,17.592,2.991,45.891,7.622,65.432c4.632,19.542,10.744,66.605,10.24,84.062"/>
				<path style="fill:none;stroke:#FFFFFF;stroke-width:1.5;stroke-linecap:round;stroke-linejoin:round;stroke-miterlimit:10;" d="
					M328.584,218.623c3.514-0.325,7.75-3.836,9.291-7.01c2.339-4.818,1.104-16.894-0.097-26.028"/>
				<path style="fill:none;stroke:#FFFFFF;stroke-width:1.5;stroke-linecap:round;stroke-linejoin:round;stroke-miterlimit:10;" d="
					M407.173,250.952c4.251,1.708,5.203,3.03,8.36,4.805"/>
				<path style="fill:#303030;" d="M338.914,338.374l0.466,3.595c0,0,5.936,3.464,17.071,3.103
					c11.135-0.361,14.594-2.33,14.594-2.33l0.256-4.012c0,0,1.975,0.469,1.765,3.713c-0.169,2.618-1.282,4.29-1.298,7.219
					c-0.021,3.883,0.569,6.084-1.385,7.451c-1.954,1.367-7.294,2.842-13.932,2.842c-5.001,0-13.252-0.032-15.767-3.533
					c-1.763-2.454-0.885-5.189-1.468-7.511c-0.583-2.322-1.756-4.129-1.727-7.293C337.511,339.27,338.914,338.374,338.914,338.374z"
					/>
				<path style="fill:#303030;" d="M392.175,268.295l-1.573,2.827c0,0,2.758,6.696,11.603,13.47
					c8.845,6.774,12.892,7.247,12.892,7.247l2.59-2.566c0,0,0.752,1.936-1.464,4.314c-1.789,1.919-3.205,2.003-5.072,4.26
					c-2.476,2.992-3.413,5.068-5.791,4.888c-2.378-0.18-7.444-2.421-12.581-6.626c-3.87-3.168-10.234-8.419-9.963-12.72
					c0.19-3.016,2.602-4.576,3.622-6.742c1.02-2.166,0.915-3.987,2.453-6.499C390.117,268.145,392.175,268.295,392.175,268.295z"/>
			</g>
		</g>
	</g>
</g>
<g id="Character_1">
	<g id="Character_00000134939873169555472160000013903860132772118959_">
		<g id="Legs_00000060720189933578211370000012945192689696869800_">
			<g>
				<path style="fill:#00826F;" d="M235.642,425.16H48.155v-23.644c12.734-14.63,48.026-9.461,58.222-9.559
					c10.196-0.098,27.744-1.338,36.698-1.491c10.782-0.185,46.163,3.154,59.068,2.731c11.764-0.386,23.143-1.899,33.478,9.547
					L235.642,425.16z"/>
			</g>
			<g id="Leg_00000051364713805355305370000003287536190981353634_">
				<g>
					<path style="fill:#303030;" d="M80.819,429.545c6.428,0.51,19.691,4.489,25.711,5.102c6.02,0.612,15.508,1.357,17.855,9.657
						c2.347,8.3-8.366,12.177-15.712,13.606c-7.346,1.428-19.385,5.714-24.487,6.224c-5.102,0.51-12.856-4.591-14.794-13.468
						C67.453,441.788,65.106,430.259,80.819,429.545z"/>
					
						<path style="fill:#FFFFFF;stroke:#303030;stroke-width:1.5;stroke-linecap:round;stroke-linejoin:round;stroke-miterlimit:10;" d="
						M72.343,460.3c2.502,2.219,6.95,3.941,13.111,2.651c-7.747,0.189-11.75-6.901-13.255-14.544
						c-1.505-7.643-2.15-17.416,8.956-17.87c-4.692-0.615-7.648-0.898-10.89,1.391c-3.335,2.365-4.628,6.996-3.869,13.108
						C67.156,451.148,67.901,456.359,72.343,460.3z"/>
					<path style="fill:#D48983;" d="M76.464,432.401c4.282-1.918,11.752-0.209,17.96,1.043c4.947,0.997,9.664,1.023,14.665,1.207
						c6.181,0.227,8.45-0.521,13.909-2.612c9.527-3.65,24.273-9.858,33.07-13.355c-0.292,11.83,2.47,23.829,10.215,31.865
						c-18.268,2.633-48.953,7.547-51.733,7.783c-3.589,0.304-7.151,0.861-10.712,1.393c-6.846,1.023-16.308,2.667-21.599,1.247
						c-2.652-0.712-3.339-3.1-2.414-4.128c-3.236-0.308-3.647-4.315-2.466-4.88c-2.466-0.411-3.236-4.521-1.13-5.599
						c-1.798-1.336-2.414-5.086-0.051-5.959C71.672,438.427,73.558,433.703,76.464,432.401z"/>
					
						<path style="fill:none;stroke:#303030;stroke-width:1.5;stroke-linecap:round;stroke-linejoin:round;stroke-miterlimit:10;" d="
						M83.281,455.956c-1.719-0.103-3.674,0.319-4.505,1.073"/>
					
						<path style="fill:none;stroke:#303030;stroke-width:1.5;stroke-linecap:round;stroke-linejoin:round;stroke-miterlimit:10;" d="
						M82.099,451.099c-2.074-0.297-3.637,0.12-5.528,1.022"/>
					
						<path style="fill:none;stroke:#303030;stroke-width:1.5;stroke-linecap:round;stroke-linejoin:round;stroke-miterlimit:10;" d="
						M80.959,445.761c-2.27-0.154-3.694-0.154-5.873,0.504"/>
					
						<path style="fill:none;stroke:#303030;stroke-width:1.5;stroke-linecap:round;stroke-linejoin:round;stroke-miterlimit:10;" d="
						M82.884,441.238c-1.304-0.816-2.719-1.117-4.258-1.146c-1.538-0.029-2.022,0.199-3.54,0.446"/>
					<path style="fill:#303030;" d="M79.335,440.127c7.685-1.572,14.33-7.773,20.833-8.4c6.504-0.627,12.288,2.936,12.288,2.936
						s-7.548,0.005-11.651,1.193c-5.02,1.454-13.002,3.899-16.278,4.808c9.135,3.751,17.01,11.739,23.515,14.703
						c6.506,2.964,15.469,1.674,15.469,1.674s-2.356,1.787-6.762,2.521c-4.406,0.734-9.126,1.678-13.217,0.944
						c-4.091-0.734-9.482-8.35-12.798-11.567C87.373,445.677,80.896,440.393,79.335,440.127z"/>
				</g>
				<path style="fill:#00826F;" d="M154.859,418.98c10.236-5.171,22.32-11.345,28.812-14.671c11.226-5.752,22.741-10.462,36.5-9.065
					c10.525,1.068,19.937,8.222,20.254,19.977c0.318,11.755-7.944,22.34-32.707,30.622c-15.46,5.171-30.106,6.242-41.959,6.43
					C158.015,444.238,154.568,430.811,154.859,418.98z"/>
				<path style="fill:none;stroke:#303030;stroke-width:1.5;stroke-linecap:round;stroke-linejoin:round;stroke-miterlimit:10;" d="
					M165.76,452.274c-7.745-8.035-11.192-21.463-10.9-33.293l-0.018-0.033l18.179-10.121c16.51-8.752,28.896-9.06,38.591-6.687"/>
			</g>
			<g id="Leg_00000108999450482481550340000006952782862847727511_">
				<g>
					<path style="fill:#303030;" d="M202.551,428.757c-6.428,0.51-19.692,4.489-25.711,5.102c-6.02,0.612-15.508,1.357-17.855,9.657
						c-2.347,8.3,8.367,12.177,15.713,13.605c7.346,1.428,19.385,5.714,24.487,6.224c5.102,0.51,12.856-4.591,14.794-13.468
						C215.917,441.001,218.264,429.471,202.551,428.757z"/>
					
						<path style="fill:#FFFFFF;stroke:#303030;stroke-width:1.5;stroke-linecap:round;stroke-linejoin:round;stroke-miterlimit:10;" d="
						M211.027,459.512c-2.502,2.219-6.95,3.941-13.111,2.651c7.747,0.189,11.75-6.901,13.255-14.544
						c1.505-7.643,2.15-17.416-8.956-17.87c4.692-0.615,7.648-0.898,10.89,1.391c3.335,2.365,4.628,6.996,3.869,13.108
						C216.214,450.36,215.469,455.572,211.027,459.512z"/>
					<path style="fill:#D48983;" d="M206.906,431.613c-4.281-1.918-11.752-0.208-17.96,1.043c-4.947,0.997-9.663,1.023-14.665,1.207
						c-6.181,0.227-8.45-0.521-13.909-2.612c-9.527-3.65-24.273-9.857-33.07-13.355c0.292,11.83-2.47,23.829-10.215,31.864
						c18.267,2.633,48.953,7.547,51.733,7.783c3.589,0.304,7.151,0.861,10.712,1.393c6.846,1.023,16.307,2.667,21.599,1.247
						c2.652-0.712,3.339-3.101,2.414-4.128c3.236-0.308,3.647-4.315,2.466-4.88c2.466-0.411,3.236-4.521,1.13-5.599
						c1.798-1.336,2.414-5.086,0.051-5.959C211.698,437.639,209.812,432.915,206.906,431.613z"/>
					
						<path style="fill:none;stroke:#303030;stroke-width:1.5;stroke-linecap:round;stroke-linejoin:round;stroke-miterlimit:10;" d="
						M175.016,433.161c-5.196,1.049-9.185,0.181-14.643-1.91c-9.527-3.65-24.273-9.857-33.07-13.355"/>
					
						<path style="fill:none;stroke:#303030;stroke-width:1.5;stroke-linecap:round;stroke-linejoin:round;stroke-miterlimit:10;" d="
						M117.088,449.76c18.267,2.633,48.953,7.547,51.733,7.783"/>
					
						<path style="fill:none;stroke:#303030;stroke-width:1.5;stroke-linecap:round;stroke-linejoin:round;stroke-miterlimit:10;" d="
						M200.089,455.168c1.719-0.103,3.674,0.32,4.505,1.073"/>
					
						<path style="fill:none;stroke:#303030;stroke-width:1.5;stroke-linecap:round;stroke-linejoin:round;stroke-miterlimit:10;" d="
						M201.271,450.311c2.074-0.297,3.637,0.119,5.528,1.022"/>
					
						<path style="fill:none;stroke:#303030;stroke-width:1.5;stroke-linecap:round;stroke-linejoin:round;stroke-miterlimit:10;" d="
						M202.411,444.973c2.27-0.154,3.694-0.154,5.873,0.504"/>
					
						<path style="fill:none;stroke:#303030;stroke-width:1.5;stroke-linecap:round;stroke-linejoin:round;stroke-miterlimit:10;" d="
						M200.486,440.45c1.305-0.816,2.719-1.117,4.258-1.146c1.538-0.029,2.022,0.199,3.54,0.446"/>
					<path style="fill:#303030;" d="M204.035,439.339c-7.685-1.572-14.33-7.773-20.833-8.4c-6.504-0.627-12.288,2.936-12.288,2.936
						s7.548,0.004,11.651,1.193c5.02,1.454,13.002,3.899,16.278,4.808c-9.135,3.751-17.01,11.739-23.516,14.703
						c-6.505,2.964-15.469,1.674-15.469,1.674s2.356,1.787,6.762,2.521c4.406,0.734,9.126,1.678,13.217,0.944
						c4.091-0.734,9.482-8.35,12.798-11.567C195.997,444.889,202.475,439.606,204.035,439.339z"/>
				</g>
				<path style="fill:#00826F;" d="M128.511,418.193c-10.236-5.171-22.32-11.345-28.812-14.671
					c-11.226-5.752-22.741-10.462-36.5-9.065c-10.525,1.068-19.937,8.222-20.255,19.977c-0.317,11.755,7.945,22.34,32.707,30.622
					c15.461,5.171,30.107,6.242,41.959,6.43C125.355,443.451,128.802,430.023,128.511,418.193z"/>
				<path style="fill:none;stroke:#303030;stroke-width:1.5;stroke-linecap:round;stroke-linejoin:round;stroke-miterlimit:10;" d="
					M117.61,451.486c7.745-8.035,11.192-21.463,10.9-33.293l0.018-0.033l-18.179-10.121c-16.51-8.752-28.896-9.06-38.591-6.687"/>
			</g>
		</g>
		<g id="Head_00000158724221917930826930000009028028848722189953_">
			<g>
				<path style="fill:#303030;" d="M170.87,285.143c0.107,12.481-13.259,22.69-26.327,22.802
					c-13.068,0.112-23.748-9.915-23.855-22.396c-0.107-12.481,10.4-22.69,23.468-22.802
					C157.223,262.635,173.069,264.925,170.87,285.143z"/>
			</g>
			<path style="fill:#303030;" d="M121.483,303.324c-0.371,2.304,0.432,4.766,2.09,6.408c-2.958,0.936-5.724,2.907-6.948,5.758
				c-1.224,2.852-0.529,6.598,2.039,8.34c-2.475,1.449-3.281,4.796-2.632,7.589c0.65,2.793,2.434,5.164,4.173,7.444
				c0.2,0.263,0.412,0.534,0.708,0.68c0.356,0.174,0.776,0.139,1.167,0.075c2.913-0.472,5.568-2.341,6.995-4.925
				c1.427-2.583,1.595-5.826,0.443-8.543c2.433,0.585,5.062-0.914,6.233-3.126c1.171-2.212,1.054-4.939,0.177-7.283
				c2.832-1.287,4.422-4.624,4.089-7.716c-0.333-3.092-2.352-5.848-4.96-7.543C130.393,297.451,122.662,296,121.483,303.324z"/>
			<path style="fill:none;stroke:#303030;stroke-width:1.5;stroke-linecap:round;stroke-linejoin:round;stroke-miterlimit:10;" d="
				M124.013,297.341c-2.323,1.354-3.896,3.915-4.052,6.6c-0.156,2.684,1.11,5.411,3.261,7.024c-5.492-1.142-9.103,3.113-9.034,7.324
				"/>
			<path style="fill:#D48983;" d="M134.339,319.046l1.035-10.34c-3.648-1.738-6.211-4.392-7.427-7.057l-0.004,0.003
				c-3.185,1.657-6.729,1.596-9.322,0.354c-2.593-1.242-4.411-4.148-3.688-6.832c0.732-2.716,3.874-4.43,6.801-4.22
				c2.927,0.21,5.531,2.007,7.269,4.265c0.244-1.662-0.118-4.109-1.657-6.056c-0.673-8.128,1.007-19.806,19.259-16.613
				c6.353-3.445,14.598-1.344,18.031,4.91l0.001,0c1.758,2.952,2.495,6.217,3.004,9.96c1.905,4.376,1.776,10.906-0.311,14.607
				c-3.398,6.024-10.053,9.051-15.744,9.289l0.883,7.731l10.685,1.937c0,0-6.238,12.299-19.111,11.956
				c-14.53-0.387-19.712-11.845-19.712-11.845L134.339,319.046z"/>
			<g>
				<path style="fill:none;stroke:#303030;stroke-width:1.5;stroke-linecap:round;stroke-linejoin:round;stroke-miterlimit:10;" d="
					M118.522,295.013c0.68-0.458,2.338-0.79,3.996-0.314c1.658,0.476,3.016,1.806,3.474,3.4"/>
				<path style="fill:none;stroke:#303030;stroke-width:1.5;stroke-linecap:round;stroke-linejoin:round;stroke-miterlimit:10;" d="
					M121.333,296.87c0.501-0.334,2.259-1.176,3.941-0.229"/>
			</g>
			<g>
				<path style="fill:#303030;" d="M141.3,310.446c0,0,4.916,1.689,10.284,0.869l0.324,2.75
					C151.908,314.065,145.702,314.482,141.3,310.446z"/>
			</g>
			<path style="fill:none;stroke:#303030;stroke-width:1.5;stroke-linecap:round;stroke-linejoin:round;stroke-miterlimit:10;" d="
				M148.104,281.421c1.5,2.424,3.64,9.256,3.137,10.428c-0.46,1.073-1.349,1.397-2.561,1.547"/>
			<g>
				<path style="fill:#AD6163;" d="M153.141,286.873c-0.468-2.562,2.635-5.699,7.05-5.097c4.422,0.603,4.785,3.176,3.573,4.19
					c-1.212,1.014-1.557-0.037-2.927-0.867C159.466,284.271,154.509,284.222,153.141,286.873z"/>
				<g>
					<path style="fill:#FFFFFF;" d="M153.418,287.296c0.433-1.8,2.051-3.253,3.948-3.547c1.897-0.294,4.705,0.403,5.404,3.035
						C162.26,289.523,156.267,290.777,153.418,287.296z"/>
					<path style="fill:#303030;" d="M160.774,287.996c-0.535,1.321-2.091,1.946-3.478,1.397c-1.386-0.55-2.077-2.066-1.543-3.388
						c0.534-1.321,2.092-1.946,3.478-1.397C160.618,285.158,161.308,286.675,160.774,287.996z"/>
					<polygon style="fill:#FFFFFF;" points="155.562,285.946 158.264,287.001 155.301,287.409 					"/>
					
						<path style="fill:none;stroke:#303030;stroke-width:1.5;stroke-linecap:round;stroke-linejoin:round;stroke-miterlimit:10;" d="
						M162.77,286.784c-0.699-2.632-3.507-3.329-5.404-3.035c-1.897,0.293-3.515,1.747-3.948,3.547"/>
					
						<path style="fill:none;stroke:#303030;stroke-width:1.5;stroke-linecap:round;stroke-linejoin:round;stroke-miterlimit:10;" d="
						M164.344,284.98c-0.209,0.584-0.798,1.01-1.417,1.028"/>
				</g>
				<path style="fill:none;stroke:#303030;stroke-width:1.5;stroke-linecap:round;stroke-linejoin:round;stroke-miterlimit:10;" d="
					M155.01,277.981c2.762-0.4,5.413-0.18,7.916,1.309"/>
			</g>
			<g>
				<path style="fill:#AD6163;" d="M145.222,285.949c0.223-2.594-3.164-5.423-7.501-4.405c-4.345,1.02-4.462,3.615-3.159,4.51
					c1.303,0.895,1.546-0.185,2.832-1.141C138.679,283.958,143.609,283.439,145.222,285.949z"/>
				<g>
					<path style="fill:#FFFFFF;" d="M135.546,287.291c0.433-1.8,2.051-3.253,3.949-3.547c1.897-0.293,4.705,0.403,5.404,3.035
						C144.389,289.517,138.395,290.771,135.546,287.291z"/>
					<path style="fill:#303030;" d="M142.903,287.991c-0.534,1.321-2.092,1.946-3.478,1.397c-1.386-0.55-2.077-2.066-1.543-3.388
						s2.091-1.946,3.478-1.397C142.746,285.153,143.437,286.669,142.903,287.991z"/>
					<polygon style="fill:#FFFFFF;" points="137.691,285.94 140.392,286.995 137.43,287.404 					"/>
					
						<path style="fill:none;stroke:#303030;stroke-width:1.5;stroke-linecap:round;stroke-linejoin:round;stroke-miterlimit:10;" d="
						M144.899,286.779c-0.699-2.632-3.507-3.329-5.404-3.035c-1.897,0.294-3.515,1.747-3.949,3.547"/>
				</g>
				<path style="fill:none;stroke:#303030;stroke-width:1.5;stroke-linecap:round;stroke-linejoin:round;stroke-miterlimit:10;" d="
					M133.972,285.458c0.396,0.634,1.169,1.01,1.911,0.931"/>
				<path style="fill:none;stroke:#303030;stroke-width:1.5;stroke-linecap:round;stroke-linejoin:round;stroke-miterlimit:10;" d="
					M142.975,277.967c-3.356-0.477-5.777,0.082-8.412,1.593"/>
			</g>
			<g>
				<path style="fill:#303030;" d="M146.672,298.642c1.498,0.246,3.302,0.741,3.699,2.114c0.924-1.504,2.162-1.841,2.162-1.841
					s-1.35-0.945-2.923-0.948C148.039,297.965,146.672,298.642,146.672,298.642z"/>
				
					<path style="fill:#FF95FB;stroke:#303030;stroke-width:1.5;stroke-linecap:round;stroke-linejoin:round;stroke-miterlimit:10;" d="
					M144.092,299.085c0.403,0.771,2.16,2.698,5.268,2.574c0.678-0.048,0.749-0.463,1.012-0.903
					c-0.043-0.644-0.957-1.947-3.699-2.114C145.908,299.036,144.827,299.134,144.092,299.085z"/>
				<path style="fill:#FFFFFF;" d="M145.792,298.893c0,0,0.056,0.58,0.95,0.759c0.894,0.178,2.843,0.129,3.511-0.194
					c0.668-0.322,0.905-1.162,0.905-1.162s-1.168-0.515-1.986-0.348C148.354,298.114,146.077,298.837,145.792,298.893z"/>
				<path style="fill:none;stroke:#303030;stroke-width:1.5;stroke-linecap:round;stroke-linejoin:round;stroke-miterlimit:10;" d="
					M153.991,299.121c-1.514-0.092-2.865-1.1-4.38-1.153c-1.182-0.041-2.293,0.501-3.429,0.827
					c-1.136,0.326-2.507,0.385-3.351-0.443"/>
				<path style="fill:none;stroke:#303030;stroke-width:1.5;stroke-linecap:round;stroke-linejoin:round;stroke-miterlimit:10;" d="
					M152.666,298.972c-1.046,0.426-1.92,1.061-2.453,2.056c-0.086,0.161-0.235,0.558-0.853,0.632
					c-1.134,0.135-4.169-0.474-5.319-2.667"/>
			</g>
		</g>
		<g id="Chest_00000085215443518487333690000013904756156233654719_">
			<path style="fill:#F55571;" d="M112.104,322.844c-9.298,2.499-16.074,5.626-20.361,18.312
				c-4.012,11.872-8.773,31.571-8.773,31.571s12.233,4.375,24.36,0.852L112.104,322.844z"/>
			<path style="fill:#F55571;" d="M175.481,322.798c10.507,2.662,15.851,6.513,19.94,18.358c4.089,11.845,7,31.571,7,31.571
				s-12.234,4.375-24.36,0.852L175.481,322.798z"/>
			
				<path id="Chest_00000180356283709463810080000014710631161980313502_" style="fill:#FFFFFF;stroke:#303030;stroke-width:1.5;stroke-linecap:round;stroke-linejoin:round;stroke-miterlimit:10;" d="
				M180.135,356.808l3.924,21.771c6.182,7.241,6.182,13.341,6.182,13.341s-11.421,14.153-47.117,14.153s-48.233-13.73-48.233-13.73
				c0.407-3.624,3.266-10.294,7.078-12.377l5.682-22.137c0,0-1.15-16.59,4.371-34.099l16.16-3.925
				c2.931,11.801,28.194,14.47,31.508,0.329l15.792,3.596C179.16,329.626,180.712,337.113,180.135,356.808z"/>
		</g>
		<g id="Arms_00000078748256875829440700000002042571177131017620_">
			<g id="Mobile_00000067914390850099654560000010535859221678171800_">
				<path style="fill:#FF95FB;" d="M137.678,358.956l15.619,0.001c1.604,0,3.106-1.37,3.355-3.06l4.677-31.718
					c0.249-1.69-0.849-3.06-2.452-3.06l-15.619-0.001c-1.604,0-3.105,1.37-3.355,3.06l-4.677,31.718
					C134.976,357.586,136.074,358.956,137.678,358.956z"/>
				<path style="fill:#303030;" d="M140.923,358.956l15.619,0.001c1.604,0,3.106-1.37,3.355-3.06l4.677-31.718
					c0.249-1.69-0.849-3.06-2.452-3.06l-15.619-0.001c-1.604,0-3.106,1.37-3.355,3.06l-4.677,31.718
					C138.222,357.586,139.32,358.956,140.923,358.956z"/>
				<path style="fill:#FFFFFF;" d="M146.275,325.861c-0.083,0.638,0.368,1.156,1.006,1.156c0.638,0,1.223-0.517,1.306-1.156
					c0.083-0.638-0.368-1.156-1.006-1.156C146.942,324.706,146.357,325.223,146.275,325.861z"/>
				<path style="fill:#FFFFFF;" d="M145.702,329.626c-0.083,0.638,0.368,1.156,1.006,1.156c0.638,0,1.223-0.517,1.306-1.156
					c0.083-0.638-0.368-1.156-1.006-1.156C146.37,328.47,145.785,328.987,145.702,329.626z"/>
			</g>
			<g>
				<path style="fill:#D48983;" d="M171.462,356.747c-2.485-3.197-2.404-5.722-2.553-8.851c-0.149-3.129-1.768-11.112-3.846-12.632
					c-1.122-0.821-2.085-0.319-2.085-0.319l-0.768,5.208c0,0-6.996-8.97-10.122-7.834c-3.126,1.136-0.69,5.155-0.69,5.155
					s-3.924-1.535-4.817,3.698c-0.893,5.233,0.246,11.603,3.372,16.217c3.126,4.615,5.147,6.035,8.273,11.968
					c3.126,5.933,7.061,14.619,13.905,23.056c9.484,11.692,18.109,12.2,23.965,7.724c3.922-2.997,6.255-12.301,4.775-26.932
					c-2.613,0.706-6.725,1.405-9.981,1.665c0,0-2.006-1.786-8.407-7.591C176.083,361.474,174.586,360.767,171.462,356.747z"/>
				<path style="fill:none;stroke:#303030;stroke-width:1.5;stroke-linecap:round;stroke-linejoin:round;stroke-miterlimit:10;" d="
					M151.003,336.679c1.589,1.141,4.476,4.861,6.095,7.587"/>
				<path style="fill:none;stroke:#303030;stroke-width:1.5;stroke-linecap:round;stroke-linejoin:round;stroke-miterlimit:10;" d="
					M161.017,337.819c1.991,2.065,3.319,4.687,4.271,6.673"/>
				<path style="fill:none;stroke:#303030;stroke-width:1.5;stroke-linecap:round;stroke-linejoin:round;stroke-miterlimit:10;" d="
					M181.802,366.032c5.035,3.655,9.841,8.821,12.509,14.344"/>
			</g>
			<g>
				<path style="fill:#D48983;" d="M125.091,352.203c4.74-7.544,7.174-14.728,13.244-17.399l-0.545,3.697
					c0,0,5.341-4.778,9.792-5.446c3.03-0.455,4.818,0.401,4.44,3.142c2.647,0.756,2.458,3.352,1.229,5.127
					c0.851,2.058-0.229,3.045-3.254,5.881c-3.025,2.836-3.805,4.655-3.805,4.655s3.504-2.313,7.059-3.378
					c2.186-0.655,2.742,2.18,0.805,3.557c-2.711,1.926-7.116,3.669-9.29,6.488c-2.174,2.819-3.461,4.458-5.85,5.938
					c-2.815,1.744-4.129,1.466-6.707,4.045c-2.591,2.591-5.358,7.065-12.448,16.518c-7.09,9.453-11.531,13.998-16.887,16.341
					c-7.33,3.207-16.044-0.792-17.233-11.789c-0.767-7.087,0.647-15.918,0.647-15.918c2.593,0.489,5.33,1.03,8.065,1.202
					c0,0,3.734-3.788,10.214-7.203C109.876,363.867,121.13,358.507,125.091,352.203z"/>
				<path style="fill:none;stroke:#303030;stroke-width:1.5;stroke-linecap:round;stroke-linejoin:round;stroke-miterlimit:10;" d="
					M105.477,366.543c-7.363,4.301-12.084,8.458-15.506,13.834"/>
				<path style="fill:none;stroke:#303030;stroke-width:1.5;stroke-linecap:round;stroke-linejoin:round;stroke-miterlimit:10;" d="
					M151.923,335.908c-3.539-0.591-7.8,2.055-13.298,8.034"/>
				<path style="fill:none;stroke:#303030;stroke-width:1.5;stroke-linecap:round;stroke-linejoin:round;stroke-miterlimit:10;" d="
					M153.252,341.09c-0.478-0.364-2.016-0.79-3.631,0.069c-3.057,1.626-5.747,4.703-8.316,7.938"/>
				<path style="fill:none;stroke:#303030;stroke-width:1.5;stroke-linecap:round;stroke-linejoin:round;stroke-miterlimit:10;" d="
					M147.611,332.219c3.03-0.455,4.789,1.236,4.411,3.978c2.647,0.756,2.458,3.352,1.229,5.127c0.851,2.058-0.229,3.045-3.254,5.881
					c-3.025,2.836-3.805,4.655-3.805,4.655s3.263-2.762,7.059-3.378c2.253-0.365,2.742,2.18,0.805,3.557
					c-2.514,1.786-5.494,3.415-7.792,5.89"/>
				<path style="fill:none;stroke:#303030;stroke-width:1.5;stroke-linecap:round;stroke-linejoin:round;stroke-miterlimit:10;" d="
					M133.463,342.96c1.255-1.921,2.791-3.659,4.543-5.14"/>
			</g>
		</g>
	</g>
</g>
</svg>
